<?xml version="1.0" encoding="UTF-8"?>
<svg width="166px" height="28px" viewBox="0 0 166 28" version="1.1" xmlns="http://www.w3.org/2000/svg">
    <!-- Generator: Sketch 47.1 (45422) - http://www.bohemiancoding.com/sketch -->
    <title>Untitled</title>
    <desc>Created with Sketch.</desc>
    <defs></defs>
    <g id="Page-1" stroke="none" stroke-width="1" fill="none" fill-rule="evenodd">
        <g id="Group" fill="#dedcdc">
            <polygon id="A"
                     points="0.0826390742 27.081358 6.96146064 27.081358 13.256514 14.9369567 19.4622957 27.081358 26.3412251 27.081358 13.256514 1.03817982"></polygon>
            <polygon id="M"
                     points="28.2278211 26.9871278 28.2278211 0.933418719 35.209372 0.933418719 41.2259409 7.82557705 47.4846609 0.933418719 54.5270023 0.933418719 54.5270023 26.8752572 47.31667 26.9871278 47.3635751 8.02764071 41.3774117 13.9602733 35.209372 8.02764071 35.209372 26.9871278"></polygon>
            <polygon id="A"
                     points="55 27.0431782 61.8788216 27.0431782 68.173875 14.8987769 74.3796566 27.0431782 81.258586 27.0431782 68.173875 1"></polygon>
            <polygon id="C"
                     points="108.813769 0.967256911 108.813769 7.84080129 89.4575494 7.84080129 89.4575494 20.8532093 108.682333 20.8532093 108.682333 26.9188524 83.4849844 26.9188524 83.4849844 0.967256911"></polygon>
            <polygon id="S"
                     points="136.917621 0.986919002 136.917621 7.85506752 117.691887 7.85506752 117.691887 11.3128201 136.917621 11.3128201 136.917621 26.9297966 112.455245 26.9297966 112.455245 20.0852433 131.775873 20.0852433 131.775873 16.6468794 112.455245 16.6468794 112.455245 0.986919002 136.045975 0.986919002"></polygon>
            <polygon id="S"
                     points="165.462376 1 165.462376 7.86814851 146.236642 7.86814851 146.236642 11.3259011 165.462376 11.3259011 165.462376 26.9428776 141 26.9428776 141 20.0983243 160.320628 20.0983243 160.320628 16.6599604 141 16.6599604 141 1 164.59073 1"></polygon>
        </g>
    </g>
</svg>