<?xml version="1.0" standalone="no"?>
<!DOCTYPE svg PUBLIC "-//W3C//DTD SVG 20010904//EN"
        "http://www.w3.org/TR/2001/REC-SVG-20010904/DTD/svg10.dtd">
<svg version="1.0" xmlns="http://www.w3.org/2000/svg"
     width="250.000000pt" height="250.000000pt" viewBox="0 0 250.000000 250.000000"
     preserveAspectRatio="xMidYMid meet">
    <metadata>
        Created by potrace 1.15, written by Peter Selinger 2001-2017
    </metadata>
    <g transform="translate(0.000000,250.000000) scale(0.100000,-0.100000)"
       fill="#000000" stroke="none">
        <path d="M662 1262 c-320 -642 -582 -1172 -582 -1179 0 -18 573 -18 591 0 8 8
140 267 294 576 154 308 284 560 289 558 5 -2 138 -259 295 -572 l286 -570
289 -3 c166 -2 293 1 298 6 10 10 -1155 2352 -1169 2352 -5 0 -270 -526 -591
-1168z"/>
    </g>
</svg>
